<svg width="25" height="25" viewBox="0 0 25 25" fill="none" xmlns="http://www.w3.org/2000/svg">
<path fill-rule="evenodd" clip-rule="evenodd" d="M6.59375 19.2549C5.20577 19.2549 4.0625 20.3982 4.0625 21.7862C4.0625 23.1742 5.20577 24.3174 6.59375 24.3174C7.98173 24.3174 9.125 23.1742 9.125 21.7862C9.125 20.3982 7.98173 19.2549 6.59375 19.2549ZM6.59375 20.9424C7.06973 20.9424 7.4375 21.3102 7.4375 21.7862C7.4375 22.2622 7.06973 22.6299 6.59375 22.6299C6.11777 22.6299 5.75 22.2622 5.75 21.7862C5.75 21.3102 6.11777 20.9424 6.59375 20.9424Z" fill="black"/>
<path fill-rule="evenodd" clip-rule="evenodd" d="M19.25 19.2549C17.862 19.2549 16.7188 20.3982 16.7188 21.7862C16.7188 23.1742 17.862 24.3174 19.25 24.3174C20.638 24.3174 21.7812 23.1742 21.7812 21.7862C21.7812 20.3982 20.638 19.2549 19.25 19.2549ZM19.25 20.9424C19.726 20.9424 20.0938 21.3102 20.0938 21.7862C20.0938 22.2622 19.726 22.6299 19.25 22.6299C18.774 22.6299 18.4062 22.2622 18.4062 21.7862C18.4062 21.3102 18.774 20.9424 19.25 20.9424Z" fill="black"/>
<path fill-rule="evenodd" clip-rule="evenodd" d="M1.53125 0.692444C1.06526 0.692444 0.6875 1.07021 0.6875 1.53619C0.6875 2.00218 1.06526 2.37994 1.53125 2.37994H2.52661L4.76288 13.553C3.85941 13.9413 3.21875 14.8418 3.21875 15.8799C3.21875 17.2677 4.36228 18.4112 5.75 18.4112H20.9474C21.4134 18.4112 21.7911 18.0334 21.7911 17.5674C21.7911 17.1015 21.4134 16.7237 20.9474 16.7237H5.75C5.26797 16.7237 4.90625 16.362 4.90625 15.8799C4.90625 15.3979 5.26797 15.0362 5.75 15.0362H19.2599H21.7911C22.2064 15.0364 22.5601 14.7344 22.625 14.3243L24.0851 5.04303C24.1661 4.53066 23.77 4.06722 23.2512 4.06744H4.5849L4.04602 1.3714C3.9674 0.976794 3.62111 0.692587 3.21875 0.692444H1.53125ZM4.92273 5.75494H22.2641L21.0693 13.3487L6.44214 13.3438L4.92273 5.75494ZM8.28125 7.44244C7.81526 7.44244 7.4375 7.82021 7.4375 8.28619C7.4375 8.75218 7.81526 9.12994 8.28125 9.12994H19.2599C19.7259 9.12994 20.1036 8.75218 20.1036 8.28619C20.1036 7.82021 19.7259 7.44244 19.2599 7.44244H8.28125ZM9.96875 9.97369C9.50276 9.97369 9.125 10.3515 9.125 10.8174C9.125 11.2834 9.50276 11.6612 9.96875 11.6612H17.5724C18.0384 11.6612 18.4161 11.2834 18.4161 10.8174C18.4161 10.3515 18.0384 9.97369 17.5724 9.97369H9.96875Z" fill="black"/>
</svg>