<svg width="29" height="29" viewBox="0 0 29 29" fill="none" xmlns="http://www.w3.org/2000/svg">
<path d="M28.9375 14.5C28.9375 10.6709 27.4164 6.9987 24.7089 4.29115C22.0013 1.58359 18.3291 0.0625004 14.5 0.0625004C10.8645 0.0591431 7.3616 1.42744 4.69095 3.89409C2.02029 6.36073 0.378524 9.74411 0.0935817 13.3684C-0.191361 16.9927 0.901501 20.5911 3.15387 23.4448C5.40624 26.2985 8.65229 28.1974 12.2436 28.7622V18.6724H8.58063V14.5H12.2457V11.3196C12.2457 7.702 14.401 5.70138 17.6989 5.70138C19.2788 5.70138 20.9309 5.98394 20.9309 5.98394V9.53762H19.1097C17.3153 9.53762 16.7584 10.6514 16.7584 11.7919V14.5H20.7618L20.1224 18.6724H16.7564V28.7622C20.1523 28.2244 23.2449 26.4926 25.4778 23.8781C27.7108 21.2637 28.9376 17.9382 28.9375 14.5Z" fill="#1877F2"/>
</svg>