<svg width="33" height="33" viewBox="0 0 33 33" fill="none" xmlns="http://www.w3.org/2000/svg">
<path d="M24.75 2.0625H8.25C4.83274 2.0625 2.0625 4.83274 2.0625 8.25V24.75C2.0625 28.1673 4.83274 30.9375 8.25 30.9375H24.75C28.1673 30.9375 30.9375 28.1673 30.9375 24.75V8.25C30.9375 4.83274 28.1673 2.0625 24.75 2.0625Z" fill="url(#paint0_radial_1_9)"/>
<path d="M24.75 2.0625H8.25C4.83274 2.0625 2.0625 4.83274 2.0625 8.25V24.75C2.0625 28.1673 4.83274 30.9375 8.25 30.9375H24.75C28.1673 30.9375 30.9375 28.1673 30.9375 24.75V8.25C30.9375 4.83274 28.1673 2.0625 24.75 2.0625Z" fill="url(#paint1_radial_1_9)"/>
<path d="M24.75 2.0625H8.25C4.83274 2.0625 2.0625 4.83274 2.0625 8.25V24.75C2.0625 28.1673 4.83274 30.9375 8.25 30.9375H24.75C28.1673 30.9375 30.9375 28.1673 30.9375 24.75V8.25C30.9375 4.83274 28.1673 2.0625 24.75 2.0625Z" fill="url(#paint2_radial_1_9)"/>
<path d="M23.7188 10.8281C23.7188 11.6824 23.0262 12.375 22.1719 12.375C21.3176 12.375 20.625 11.6824 20.625 10.8281C20.625 9.97381 21.3176 9.28125 22.1719 9.28125C23.0262 9.28125 23.7188 9.97381 23.7188 10.8281Z" fill="white"/>
<path fill-rule="evenodd" clip-rule="evenodd" d="M16.5 21.6562C19.3477 21.6562 21.6562 19.3477 21.6562 16.5C21.6562 13.6523 19.3477 11.3438 16.5 11.3438C13.6523 11.3438 11.3438 13.6523 11.3438 16.5C11.3438 19.3477 13.6523 21.6562 16.5 21.6562ZM16.5 19.5938C18.2087 19.5938 19.5938 18.2087 19.5938 16.5C19.5938 14.7913 18.2087 13.4062 16.5 13.4062C14.7913 13.4062 13.4062 14.7913 13.4062 16.5C13.4062 18.2087 14.7913 19.5938 16.5 19.5938Z" fill="white"/>
<path fill-rule="evenodd" clip-rule="evenodd" d="M6.1875 16.0875C6.1875 12.6222 6.1875 10.8895 6.8619 9.56594C7.45511 8.40168 8.40168 7.45511 9.56594 6.8619C10.8895 6.1875 12.6222 6.1875 16.0875 6.1875H16.9125C20.3778 6.1875 22.1105 6.1875 23.434 6.8619C24.5983 7.45511 25.5449 8.40168 26.1381 9.56594C26.8125 10.8895 26.8125 12.6222 26.8125 16.0875V16.9125C26.8125 20.3778 26.8125 22.1105 26.1381 23.434C25.5449 24.5983 24.5983 25.5449 23.434 26.1381C22.1105 26.8125 20.3778 26.8125 16.9125 26.8125H16.0875C12.6222 26.8125 10.8895 26.8125 9.56594 26.1381C8.40168 25.5449 7.45511 24.5983 6.8619 23.434C6.1875 22.1105 6.1875 20.3778 6.1875 16.9125V16.0875ZM16.0875 8.25H16.9125C18.6792 8.25 19.8801 8.25161 20.8085 8.32745C21.7128 8.40133 22.1752 8.53523 22.4977 8.69959C23.2739 9.09508 23.9049 9.72612 24.3004 10.5023C24.4648 10.8248 24.5987 11.2872 24.6726 12.1915C24.7484 13.1199 24.75 14.3208 24.75 16.0875V16.9125C24.75 18.6792 24.7484 19.8801 24.6726 20.8085C24.5987 21.7128 24.4648 22.1752 24.3004 22.4977C23.9049 23.2739 23.2739 23.9049 22.4977 24.3004C22.1752 24.4648 21.7128 24.5987 20.8085 24.6726C19.8801 24.7484 18.6792 24.75 16.9125 24.75H16.0875C14.3208 24.75 13.1199 24.7484 12.1915 24.6726C11.2872 24.5987 10.8248 24.4648 10.5023 24.3004C9.72612 23.9049 9.09508 23.2739 8.69959 22.4977C8.53523 22.1752 8.40133 21.7128 8.32745 20.8085C8.25161 19.8801 8.25 18.6792 8.25 16.9125V16.0875C8.25 14.3208 8.25161 13.1199 8.32745 12.1915C8.40133 11.2872 8.53523 10.8248 8.69959 10.5023C9.09508 9.72612 9.72612 9.09508 10.5023 8.69959C10.8248 8.53523 11.2872 8.40133 12.1915 8.32745C13.1199 8.25161 14.3208 8.25 16.0875 8.25Z" fill="white"/>
<defs>
<radialGradient id="paint0_radial_1_9" cx="0" cy="0" r="1" gradientUnits="userSpaceOnUse" gradientTransform="translate(12.375 23.7188) rotate(-55.3758) scale(26.3171)">
<stop stop-color="#B13589"/>
<stop offset="0.79309" stop-color="#C62F94"/>
<stop offset="1" stop-color="#8A3AC8"/>
</radialGradient>
<radialGradient id="paint1_radial_1_9" cx="0" cy="0" r="1" gradientUnits="userSpaceOnUse" gradientTransform="translate(11.3438 31.9688) rotate(-65.1363) scale(23.3003)">
<stop stop-color="#E0E8B7"/>
<stop offset="0.444662" stop-color="#FB8A2E"/>
<stop offset="0.71474" stop-color="#E2425C"/>
<stop offset="1" stop-color="#E2425C" stop-opacity="0"/>
</radialGradient>
<radialGradient id="paint2_radial_1_9" cx="0" cy="0" r="1" gradientUnits="userSpaceOnUse" gradientTransform="translate(0.515625 3.09375) rotate(-8.1301) scale(40.1062 8.57831)">
<stop offset="0.156701" stop-color="#406ADC"/>
<stop offset="0.467799" stop-color="#6A45BE"/>
<stop offset="1" stop-color="#6A45BE" stop-opacity="0"/>
</radialGradient>
</defs>
</svg>