<svg width="33" height="33" viewBox="0 0 33 33" fill="none" xmlns="http://www.w3.org/2000/svg">
<path fill-rule="evenodd" clip-rule="evenodd" d="M33 6.00551C31.7875 6.5577 30.482 6.93112 29.1125 7.09796C30.511 6.23989 31.5841 4.87929 32.0896 3.25849C30.7802 4.053 29.3333 4.631 27.7876 4.94086C26.5557 3.59218 24.795 2.75 22.8465 2.75C19.1101 2.75 16.0787 5.85852 16.0787 9.69203C16.0787 10.2363 16.1368 10.7646 16.253 11.2731C10.6262 10.9831 5.63849 8.22219 2.29723 4.01724C1.71421 5.04613 1.38104 6.23989 1.38104 7.51111C1.38104 9.91847 2.57616 12.0438 4.39303 13.2892C3.28509 13.2554 2.23912 12.9396 1.32488 12.4232V12.5086C1.32488 15.8733 3.65892 18.6799 6.75805 19.3155C6.19052 19.4784 5.59201 19.5599 4.97412 19.5599C4.5383 19.5599 4.11217 19.5181 3.69959 19.4367C4.56154 22.1937 7.06021 24.2018 10.0238 24.2554C7.70716 26.1185 4.78622 27.2289 1.61542 27.2289C1.0692 27.2289 0.52879 27.1971 0 27.1335C2.99648 29.0999 6.55661 30.25 10.3782 30.25C22.8329 30.25 29.6413 19.6731 29.6413 10.4985C29.6413 10.1965 29.6355 9.89463 29.6239 9.59868C30.9468 8.61945 32.0954 7.39789 33 6.00551Z" fill="#00AAEC"/>
</svg>