<svg width="33" height="33" viewBox="0 0 33 33" fill="none" xmlns="http://www.w3.org/2000/svg">
<path d="M30.3435 9.55556C30.1783 8.9461 29.8564 8.3905 29.4099 7.944C28.9634 7.49749 28.4078 7.17564 27.7984 7.01043C25.5379 6.41437 16.5 6.41437 16.5 6.41437C16.5 6.41437 7.46213 6.41437 5.20163 7.01043C3.96413 7.34249 2.99062 8.31806 2.6565 9.55556C2.0625 11.814 2.0625 16.5 2.0625 16.5C2.0625 16.5 2.0625 21.2087 2.6565 23.4444C2.99062 24.6819 3.96619 25.6575 5.20163 25.9896C7.46213 26.5856 16.5 26.5856 16.5 26.5856C16.5 26.5856 25.5379 26.5856 27.7984 25.9896C28.4078 25.8243 28.9634 25.5025 29.4099 25.056C29.8564 24.6095 30.1783 24.0539 30.3435 23.4444C30.9375 21.186 30.9375 16.5 30.9375 16.5C30.9375 16.5 30.9375 11.814 30.3435 9.55556Z" fill="#FF0000"/>
<path d="M13.5981 20.8519L21.1138 16.5248L13.5981 12.1729V20.8519Z" fill="white"/>
</svg>