<svg width="56" height="64" viewBox="0 0 56 64" fill="none" xmlns="http://www.w3.org/2000/svg">
<path d="M16.9477 23.3031C17.5095 23.3031 18.0484 23.5263 18.4457 23.9236C18.843 24.3208 19.0661 24.8597 19.0661 25.4215V50.8431C19.0661 51.4049 18.843 51.9438 18.4457 52.3411C18.0484 52.7383 17.5095 52.9615 16.9477 52.9615C16.3858 52.9615 15.847 52.7383 15.4497 52.3411C15.0524 51.9438 14.8292 51.4049 14.8292 50.8431V25.4215C14.8292 24.8597 15.0524 24.3208 15.4497 23.9236C15.847 23.5263 16.3858 23.3031 16.9477 23.3031ZM27.54 23.3031C28.1018 23.3031 28.6407 23.5263 29.038 23.9236C29.4353 24.3208 29.6585 24.8597 29.6585 25.4215V50.8431C29.6585 51.4049 29.4353 51.9438 29.038 52.3411C28.6407 52.7383 28.1018 52.9615 27.54 52.9615C26.9781 52.9615 26.4393 52.7383 26.042 52.3411C25.6447 51.9438 25.4215 51.4049 25.4215 50.8431V25.4215C25.4215 24.8597 25.6447 24.3208 26.042 23.9236C26.4393 23.5263 26.9781 23.3031 27.54 23.3031ZM40.2508 25.4215C40.2508 24.8597 40.0276 24.3208 39.6303 23.9236C39.233 23.5263 38.6942 23.3031 38.1323 23.3031C37.5705 23.3031 37.0316 23.5263 36.6343 23.9236C36.237 24.3208 36.0138 24.8597 36.0138 25.4215V50.8431C36.0138 51.4049 36.237 51.9438 36.6343 52.3411C37.0316 52.7383 37.5705 52.9615 38.1323 52.9615C38.6942 52.9615 39.233 52.7383 39.6303 52.3411C40.0276 51.9438 40.2508 51.4049 40.2508 50.8431V25.4215Z" fill="#EF233C"/>
<path fill-rule="evenodd" clip-rule="evenodd" d="M55.08 12.7108C55.08 13.8345 54.6336 14.9121 53.839 15.7067C53.0445 16.5013 51.9668 16.9477 50.8431 16.9477H48.7246V55.08C48.7246 57.3274 47.8318 59.4828 46.2427 61.0719C44.6535 62.6611 42.4982 63.5538 40.2508 63.5538H14.8292C12.5818 63.5538 10.4265 62.6611 8.83732 61.0719C7.24816 59.4828 6.35538 57.3274 6.35538 55.08V16.9477H4.23692C3.11322 16.9477 2.03554 16.5013 1.24097 15.7067C0.446389 14.9121 0 13.8345 0 12.7108V8.47385C0 7.35014 0.446389 6.27247 1.24097 5.47789C2.03554 4.68331 3.11322 4.23692 4.23692 4.23692H19.0662C19.0662 3.11322 19.5125 2.03554 20.3071 1.24097C21.1017 0.446389 22.1794 0 23.3031 0L31.7769 0C32.9006 0 33.9783 0.446389 34.7729 1.24097C35.5675 2.03554 36.0138 3.11322 36.0138 4.23692H50.8431C51.9668 4.23692 53.0445 4.68331 53.839 5.47789C54.6336 6.27247 55.08 7.35014 55.08 8.47385V12.7108ZM11.0923 16.9477L10.5923 17.1977V55.08C10.5923 56.2037 11.0387 57.2814 11.8333 58.076C12.6279 58.8705 13.7055 59.3169 14.8292 59.3169H40.2508C41.3745 59.3169 42.4521 58.8705 43.2467 58.076C44.0413 57.2814 44.4877 56.2037 44.4877 55.08V17.1977L43.9877 16.9477H11.0923ZM4.23692 12.7108V8.47385H50.8431V12.7108H4.23692Z" fill="#EF233C"/>
</svg>